<svg width="94" height="83" viewBox="0 0 94 83" fill="none" xmlns="http://www.w3.org/2000/svg">
<path d="M1.02826 12.8474L22.3413 0.297962C22.9957 -0.0993207 23.8136 -0.0993207 24.4679 0.297962L45.781 12.8474C46.412 13.2213 46.8092 13.9224 46.8092 14.6469V39.8159C46.8092 40.5637 46.412 41.2414 45.781 41.6154L24.4679 54.1648C23.8136 54.5621 22.9957 54.5621 22.3413 54.1648L1.02826 41.6154C0.397283 41.2414 0 40.5404 0 39.8159V14.6469C0 13.9224 0.397283 13.2213 1.02826 12.8474Z" fill="#1B2A57"/>
<path d="M46.4119 62.4844C58.712 62.4844 68.6831 52.3144 68.6831 39.7692C68.6831 27.2239 58.712 17.054 46.4119 17.054C34.1119 17.054 24.1407 27.2239 24.1407 39.7692C24.1407 52.3144 34.1119 62.4844 46.4119 62.4844Z" fill="#6062AC" stroke="white" stroke-miterlimit="10"/>
<path d="M47.0429 40.0496L68.4494 27.4534C69.0804 27.0795 69.8516 27.0795 70.4826 27.4534L91.8891 40.0496C92.4967 40.4002 92.8706 41.0779 92.8706 41.779V67.0415C92.8706 67.7425 92.4967 68.3969 91.8891 68.7708L70.4826 81.3436C69.8516 81.7175 69.0804 81.7175 68.4494 81.3436L47.0429 68.7474C46.4353 68.3969 46.0614 67.7192 46.0614 67.0181V41.7556C46.0614 41.0545 46.4353 40.4002 47.0429 40.0496Z" fill="#1B2A57" stroke="white" stroke-miterlimit="10"/>
</svg>
